<svg xmlns="http://www.w3.org/2000/svg" id="Layer_1" data-name="Layer 1" viewBox="0 0 512 512" width="300" height="300" version="1.1" xmlns:xlink="http://www.w3.org/1999/xlink" xmlns:svgjs="http://svgjs.dev/svgjs"><g width="100%" height="100%" transform="matrix(1,0,0,1,0,0)"><title>Computer online approved ads</title><path d="M89.175,381.239H250V455H173.373a6,6,0,0,0,0,12H343.41a6,6,0,0,0,0-12H262V381.239H422.825a46.053,46.053,0,0,0,46-46V91a46.053,46.053,0,0,0-46-46H89.175a46.053,46.053,0,0,0-46,46V335.239A46.053,46.053,0,0,0,89.175,381.239ZM89.175,57h333.65a34.039,34.039,0,0,1,34,34V293.918H55.175V91A34.039,34.039,0,0,1,89.175,57Zm-34,248.915h401.65v29.321a34.039,34.039,0,0,1-34,34H89.175a34.039,34.039,0,0,1-34-34Z" fill="#ffffff" fill-opacity="1" data-original-color="#000000ff" stroke="none" stroke-opacity="1"/><path d="M135.182,215.031a54.182,54.182,0,1,0-42.666-87.58,54.182,54.182,0,0,0,42.666,87.58Zm-33.221-80.178a42.184,42.184,0,1,1-8.961,26A41.961,41.961,0,0,1,101.961,134.853Z" fill="#ffffff" fill-opacity="1" data-original-color="#000000ff" stroke="none" stroke-opacity="1"/><path d="M122.936,175.7a6,6,0,0,0,8.348.757l26.931-21.91a6,6,0,1,0-7.572-9.308l-22.387,18.213-7.759-9.087a6,6,0,1,0-9.125,7.793Z" fill="#ffffff" fill-opacity="1" data-original-color="#000000ff" stroke="none" stroke-opacity="1"/><path d="M87,241h95a6,6,0,0,0,0-12H87a6,6,0,0,0,0,12Z" fill="#ffffff" fill-opacity="1" data-original-color="#000000ff" stroke="none" stroke-opacity="1"/><path d="M87,271h56a6,6,0,0,0,0-12H87a6,6,0,0,0,0,12Z" fill="#ffffff" fill-opacity="1" data-original-color="#000000ff" stroke="none" stroke-opacity="1"/><path d="M242.592,206.651,241.06,237.4a6,6,0,0,0,4.424,6.09l29.713,8.042L292.028,277.3a6,6,0,0,0,7.16,2.326l28.765-10.959,28.767,10.959a6,6,0,0,0,7.159-2.326l16.831-25.774,29.713-8.042a6,6,0,0,0,4.425-6.09l-1.534-30.745,19.312-23.971a6,6,0,0,0,0-7.528l-19.312-23.971,1.534-30.745a6,6,0,0,0-4.425-6.09L380.71,106.3,363.879,80.529A6,6,0,0,0,356.72,78.2L327.953,89.162,299.188,78.2a6,6,0,0,0-7.16,2.326L275.2,106.3l-29.713,8.043a6,6,0,0,0-4.424,6.09l1.532,30.745L223.28,175.152a6,6,0,0,0,0,7.528Zm10.779-49.722a6,6,0,0,0,1.319-4.063l-1.405-28.2,27.254-7.377A6,6,0,0,0,284,114.778l15.438-23.64,26.384,10.051a5.991,5.991,0,0,0,4.272,0l26.386-10.051,15.437,23.64a6,6,0,0,0,3.456,2.511l27.254,7.377-1.406,28.2a6.005,6.005,0,0,0,1.319,4.063l17.713,21.987L402.535,200.9a6.005,6.005,0,0,0-1.319,4.063l1.406,28.2-27.254,7.376a6,6,0,0,0-3.456,2.511l-15.437,23.641-26.386-10.052a6,6,0,0,0-4.272,0l-26.384,10.052L284,243.053a6,6,0,0,0-3.456-2.511l-27.254-7.376,1.405-28.2a6,6,0,0,0-1.319-4.063l-17.713-21.987Z" fill="#ffffff" fill-opacity="1" data-original-color="#000000ff" stroke="none" stroke-opacity="1"/><path d="M288.284,205.578c2.876,0,3.842-1.38,4.144-2.527l3.059-10.71H313.8l3.056,10.7c.305,1.157,1.271,2.537,4.147,2.537,2.987,0,7.326-1.946,7.326-5a2.942,2.942,0,0,0-.131-.762l-16.124-52.58c-.888-2.963-4.442-4.019-7.471-4.019-2.853,0-6.5,1.052-7.388,4.016l-16.081,52.413a4.435,4.435,0,0,0-.176.932C280.957,203.678,285.225,205.578,288.284,205.578Zm9.736-22.728,6.582-23.225,6.581,23.225Z" fill="#ffffff" fill-opacity="1" data-original-color="#000000ff" stroke="none" stroke-opacity="1"/><path d="M338.318,205.578h14.737c12.938,0,20.063-6.948,20.063-19.564V163.286c0-12.617-7.125-19.565-20.063-19.565H338.318c-2.941,0-5.245,1.682-5.245,3.83v54.2C333.073,203.9,335.377,205.578,338.318,205.578ZM361.3,186.014c0,6.021-2.773,9.073-8.241,9.073H344.9V154.212h8.159c5.468,0,8.241,3.053,8.241,9.074Z" fill="#ffffff" fill-opacity="1" data-original-color="#000000ff" stroke="none" stroke-opacity="1"/></g></svg>