<svg width="24" height="24" viewBox="0 0 24 24" fill="none" xmlns="http://www.w3.org/2000/svg">
<path d="M11.5002 12V13.5H10.0002C9.7002 13.5 9.5002 13.7 9.5002 14C9.5002 14.3 9.7002 14.5 10.0002 14.5H11.5002V16C11.5002 16.3 11.7002 16.5 12.0002 16.5C12.3002 16.5 12.5002 16.3 12.5002 16V14.5H14.0002C14.3002 14.5 14.5002 14.3 14.5002 14C14.5002 13.7 14.3002 13.5 14.0002 13.5H12.5002V12C12.5002 11.7 12.3002 11.5 12.0002 11.5C11.7002 11.5 11.5002 11.7 11.5002 12ZM21.8002 10.6L12.3002 2.20005C12.1002 2.00005 11.8002 2.00005 11.6002 2.20005L2.1002 10.6C1.9002 10.8 1.9002 11.1 2.1002 11.3C2.3002 11.5 2.6002 11.5 2.8002 11.3L4.0002 10.3V21.5C4.0002 21.8 4.2002 22 4.5002 22H19.5002C19.8002 22 20.0002 21.8 20.0002 21.5V10.3L21.2002 11.3C21.3002 11.4 21.4002 11.4 21.5002 11.4C21.6002 11.4 21.8002 11.3 21.9002 11.2C22.1002 11.1 22.0002 10.7 21.8002 10.6ZM19.0002 21H5.0002V9.40005L12.0002 3.20005L19.0002 9.40005V21Z" fill="white"/>
</svg>
