<svg height="300" viewBox="0 -52 480 480" width="300" xmlns="http://www.w3.org/2000/svg" version="1.1" xmlns:xlink="http://www.w3.org/1999/xlink" xmlns:svgjs="http://svgjs.dev/svgjs"><g width="100%" height="100%" transform="matrix(1,0,0,1,0,0)"><path d="m72 208h112c4.417969 0 8-3.582031 8-8v-48c-.039062-20.140625-15.015625-37.128906-34.992188-39.695312-.222656 0-.421874.0625-.640624.054687-.605469-.023437-1.210938.023437-1.808594.144531-.40625.070313-.804688.167969-1.199219.296875-.539063.207031-1.054687.476563-1.535156.800781-.417969.25-.808594.539063-1.167969.863282-.183594.167968-.417969.246094-.585938.429687-.15625.234375-.300781.480469-.429687.730469-.640625.851562-1.09375 1.835938-1.320313 2.878906-.101562.246094-.1875.496094-.257812.753906.003906.226563.019531.453126.050781.679688-.019531.535156.019531 1.070312.117188 1.597656.078125.488282.195312.972656.355469 1.441406.179687.460938.40625.902344.671874 1.320313.273438.476563.601563.921875.972657 1.328125.160156.167969.226562.382812.402343.535156 1.136719 1.03125 1.367188 1.703125 1.367188 1.832032 0 1.601562-7.71875 8-24 8s-24-6.398438-24-8c0-.128907.230469-.800782 1.367188-1.832032.175781-.152344.242187-.367187.402343-.535156.371094-.40625.699219-.851562.972657-1.328125.265624-.417969.492187-.859375.671874-1.320313.160157-.46875.277344-.953124.355469-1.441406.097657-.527344.136719-1.0625.117188-1.597656.03125-.226562.046875-.453125.050781-.679688-.070312-.257812-.15625-.507812-.257812-.753906-.117188-.527344-.292969-1.042968-.519532-1.535156-.214844-.480469-.484375-.9375-.800781-1.359375-.167969-.226563-.230469-.496094-.421875-.714844-.195312-.214843-.394531-.253906-.578125-.421875-.371094-.335937-.777344-.636718-1.207031-.898437-.464844-.296875-.960938-.546875-1.480469-.742188-.976563-.316406-1.996094-.46875-3.023437-.457031-.222657 0-.425782-.070312-.648438-.046875-19.972656 2.5625-34.945312 19.535156-35 39.671875v48c0 4.417969 3.582031 8 8 8zm16.96875-74.671875c3.832031 10.9375 19.3125 18.671875 39.03125 18.671875s35.199219-7.734375 39.03125-18.671875c5.660156 4.546875 8.957031 11.410156 8.96875 18.671875v40h-96v-40c.011719-7.261719 3.308594-14.125 8.96875-18.671875zm0 0" fill="#ffffff" fill-opacity="1" data-original-color="#000000ff" stroke="none" stroke-opacity="1"/><path d="m128 112c22.089844 0 40-17.910156 40-40s-17.910156-40-40-40-40 17.910156-40 40c.027344 22.082031 17.917969 39.972656 40 40zm0-64c13.253906 0 24 10.746094 24 24s-10.746094 24-24 24-24-10.746094-24-24 10.746094-24 24-24zm0 0" fill="#ffffff" fill-opacity="1" data-original-color="#000000ff" stroke="none" stroke-opacity="1"/><path d="m472 0h-464c-4.417969 0-8 3.582031-8 8v336c0 4.417969 3.582031 8 8 8h464c4.417969 0 8-3.582031 8-8v-336c0-4.417969-3.582031-8-8-8zm-8 336h-448v-320h448zm0 0" fill="#ffffff" fill-opacity="1" data-original-color="#000000ff" stroke="none" stroke-opacity="1"/><path d="m240 72h192c4.417969 0 8-3.582031 8-8s-3.582031-8-8-8h-192c-4.417969 0-8 3.582031-8 8s3.582031 8 8 8zm0 0" fill="#ffffff" fill-opacity="1" data-original-color="#000000ff" stroke="none" stroke-opacity="1"/><path d="m240 104h144c4.417969 0 8-3.582031 8-8s-3.582031-8-8-8h-144c-4.417969 0-8 3.582031-8 8s3.582031 8 8 8zm0 0" fill="#ffffff" fill-opacity="1" data-original-color="#000000ff" stroke="none" stroke-opacity="1"/><path d="m240 144h72c4.417969 0 8-3.582031 8-8s-3.582031-8-8-8h-72c-4.417969 0-8 3.582031-8 8s3.582031 8 8 8zm0 0" fill="#ffffff" fill-opacity="1" data-original-color="#000000ff" stroke="none" stroke-opacity="1"/><path d="m432 128h-88c-4.417969 0-8 3.582031-8 8s3.582031 8 8 8h88c4.417969 0 8-3.582031 8-8s-3.582031-8-8-8zm0 0" fill="#ffffff" fill-opacity="1" data-original-color="#000000ff" stroke="none" stroke-opacity="1"/><path d="m48 320h384c4.417969 0 8-3.582031 8-8v-80c0-4.417969-3.582031-8-8-8h-384c-4.417969 0-8 3.582031-8 8v80c0 4.417969 3.582031 8 8 8zm8-80h368v64h-368zm0 0" fill="#ffffff" fill-opacity="1" data-original-color="#000000ff" stroke="none" stroke-opacity="1"/><path d="m240 176h192c4.417969 0 8-3.582031 8-8s-3.582031-8-8-8h-192c-4.417969 0-8 3.582031-8 8s3.582031 8 8 8zm0 0" fill="#ffffff" fill-opacity="1" data-original-color="#000000ff" stroke="none" stroke-opacity="1"/><path d="m464 360h-448c-4.417969 0-8 3.582031-8 8s3.582031 8 8 8h448c4.417969 0 8-3.582031 8-8s-3.582031-8-8-8zm0 0" fill="#ffffff" fill-opacity="1" data-original-color="#000000ff" stroke="none" stroke-opacity="1"/></g></svg>