<svg width="24" height="24" viewBox="0 0 24 24" fill="none" xmlns="http://www.w3.org/2000/svg">
<path d="M20.4688 8.63024C20.2302 8.86731 19.9075 9.00037 19.5711 9.00037C19.2348 9.00037 18.9121 8.86731 18.6735 8.63024L17.6197 7.57602C17.3826 7.33756 17.2494 7.01492 17.2494 6.6786C17.2494 6.34229 17.3826 6.01964 17.6197 5.78118L20.0052 3.39571C20.0098 3.39113 20.0132 3.38549 20.0151 3.37929C20.017 3.37309 20.0174 3.36652 20.0162 3.36015C20.015 3.35377 20.0122 3.34779 20.0082 3.34271C20.0042 3.33764 19.9989 3.33362 19.993 3.33102C18.4536 2.67196 16.4572 3.00712 15.1897 4.26571C13.9766 5.46993 13.9077 7.27837 14.3521 8.85946C14.4152 9.08405 14.415 9.32172 14.3516 9.54623C14.2881 9.77073 14.1639 9.97333 13.9925 10.1316L5.88315 17.6673C5.68959 17.8406 5.53342 18.0516 5.42418 18.2873C5.31493 18.523 5.25491 18.7785 5.24779 19.0383C5.24066 19.298 5.28658 19.5564 5.38274 19.7978C5.4789 20.0391 5.62327 20.2584 5.80703 20.442C5.99079 20.6257 6.21008 20.7699 6.4515 20.866C6.69291 20.962 6.95137 21.0078 7.21108 21.0005C7.47079 20.9933 7.72629 20.9331 7.96197 20.8238C8.19764 20.7144 8.40853 20.5581 8.58174 20.3645L16.1825 12.241C16.3391 12.0725 16.5387 11.9498 16.7598 11.8862C16.9809 11.8226 17.2152 11.8205 17.4374 11.8801C19.0058 12.2991 20.7885 12.2204 21.9875 11.0391C23.2761 9.76977 23.5541 7.52633 22.9297 6.24243C22.9269 6.2368 22.9228 6.23192 22.9177 6.22819C22.9126 6.22446 22.9067 6.22199 22.9005 6.22098C22.8942 6.21998 22.8879 6.22046 22.8819 6.2224C22.8759 6.22433 22.8704 6.22766 22.866 6.23212L20.4688 8.63024Z" stroke="white" stroke-width="0.609939" stroke-miterlimit="10" stroke-linecap="round"/>
<path d="M10.5 13.3125C9.68059 12.5157 9.30512 12.1449 9.04684 11.8927C8.91758 11.7643 8.83273 11.5979 8.80465 11.4179C8.77657 11.2379 8.80673 11.0536 8.89075 10.8919C8.93504 10.8124 8.99026 10.7395 9.05481 10.6754L9.78981 9.95864C9.86586 9.88245 9.95533 9.82095 10.0537 9.77724C10.209 9.70849 10.3814 9.68791 10.5485 9.71816C10.7156 9.74841 10.8699 9.8281 10.9912 9.94692C11.2467 10.1949 11.7145 10.65 12.5573 11.4713" stroke="white" stroke-width="0.609939" stroke-linecap="round" stroke-linejoin="round"/>
<path d="M14.8628 13.6548C16.7823 15.4407 19.1106 17.5581 20.019 18.3146C20.087 18.3706 20.1424 18.4402 20.1819 18.519C20.2213 18.5977 20.2438 18.6838 20.248 18.7717C20.2521 18.8597 20.2378 18.9475 20.206 19.0296C20.1741 19.1117 20.1255 19.1862 20.0631 19.2484L18.4984 20.8126C18.4347 20.8748 18.3591 20.9234 18.276 20.9555C18.1929 20.9875 18.1042 21.0023 18.0152 20.999C17.9262 20.9957 17.8389 20.9743 17.7584 20.9361C17.678 20.8979 17.6062 20.8438 17.5473 20.777C16.7725 19.8779 14.6837 17.6312 12.894 15.7613" stroke="white" stroke-width="0.609939" stroke-linecap="round" stroke-linejoin="round"/>
<path d="M0.812858 9.07031L2.19145 7.72313C2.21251 7.70242 2.23751 7.68616 2.26496 7.67529C2.29242 7.66442 2.32177 7.65917 2.3513 7.65985C2.41081 7.6592 2.46819 7.68192 2.51114 7.72313V7.72313C2.56106 7.77251 2.62158 7.80987 2.6881 7.83237C2.75462 7.85487 2.82539 7.86191 2.89504 7.85297C3.07458 7.83328 3.2663 7.77797 3.39051 7.65985C3.67176 7.38797 3.34645 6.85219 3.59395 6.50953C3.87695 6.13442 4.18683 5.78037 4.52114 5.45016C4.80239 5.17453 5.91989 4.12266 7.7977 3.36656C8.39822 3.12383 9.03998 2.99936 9.6877 3C10.7466 3 11.5627 3.46875 11.8561 3.73453C12.0323 3.90211 12.1935 4.08467 12.338 4.28016C12.1969 4.22814 12.0527 4.18478 11.9063 4.15031C11.5984 4.08499 11.2825 4.06509 10.9688 4.09125C10.344 4.14235 9.5902 4.43156 9.18755 4.7475C8.53598 5.26313 8.25614 5.95313 8.21208 6.84328C8.1802 7.50516 8.33958 7.87922 9.90426 9.44438C9.95774 9.50407 9.98597 9.58219 9.98299 9.66228C9.98002 9.74237 9.94608 9.81818 9.88833 9.87375L9.03426 10.7175C8.97473 10.7759 8.8949 10.8089 8.81152 10.8097C8.72814 10.8105 8.6477 10.779 8.58708 10.7217C7.55864 9.69328 6.86911 9.17063 6.4777 8.93297C6.0863 8.69531 5.7713 8.62828 5.61989 8.61188C5.32253 8.58241 5.02335 8.64578 4.76348 8.79328C4.71789 8.81834 4.67619 8.84992 4.63973 8.88703C4.57887 8.94994 4.53107 9.02428 4.4991 9.10576C4.46712 9.18724 4.4516 9.27425 4.45343 9.36176C4.45526 9.44927 4.4744 9.53555 4.50976 9.61563C4.54512 9.6957 4.59598 9.76797 4.65942 9.82828L4.73958 9.90328C4.76038 9.92351 4.77693 9.9477 4.78822 9.97443C4.79952 10.0012 4.80533 10.0299 4.80533 10.0589C4.80533 10.0879 4.79952 10.1166 4.78822 10.1434C4.77693 10.1701 4.76038 10.1943 4.73958 10.2145L3.36239 11.5594C3.34153 11.5805 3.31662 11.5972 3.28915 11.6085C3.26169 11.6197 3.23223 11.6254 3.20255 11.625C3.14304 11.6256 3.08567 11.6029 3.0427 11.5617L0.812858 9.38531C0.7725 9.34281 0.75 9.28643 0.75 9.22781C0.75 9.1692 0.7725 9.11282 0.812858 9.07031V9.07031Z" stroke="white" stroke-width="0.609939" stroke-linecap="round" stroke-linejoin="round"/>
</svg>
