<svg width="24" height="24" viewBox="0 0 24 24" fill="none" xmlns="http://www.w3.org/2000/svg">
<g clip-path="url(#clip0_2409_83)">
<path d="M7 10.0001L8.359 8.37012" stroke="white" stroke-linecap="round" stroke-linejoin="round"/>
<path d="M10.1758 6.188L11.9998 4L16.9998 10" stroke="white" stroke-linecap="round" stroke-linejoin="round"/>
<path d="M18.77 18.757C18.412 19.525 17.743 20.019 17 20H7C6.034 20.024 5.193 19.183 5 18L3 10H10" stroke="white" stroke-linecap="round" stroke-linejoin="round"/>
<path d="M14 10H21L19.603 15.587" stroke="white" stroke-linecap="round" stroke-linejoin="round"/>
<path d="M10 15C10 15.5304 10.2107 16.0391 10.5858 16.4142C10.9609 16.7893 11.4696 17 12 17C12.5304 17 13.0391 16.7893 13.4142 16.4142C13.7893 16.0391 14 15.5304 14 15C14 14.4696 13.7893 13.9609 13.4142 13.5858C13.0391 13.2107 12.5304 13 12 13C11.4696 13 10.9609 13.2107 10.5858 13.5858C10.2107 13.9609 10 14.4696 10 15Z" stroke="white" stroke-linecap="round" stroke-linejoin="round"/>
<path d="M3 3L21 21" stroke="white" stroke-linecap="round" stroke-linejoin="round"/>
</g>
<defs>
<clipPath id="clip0_2409_83">
<rect width="24" height="24" fill="white"/>
</clipPath>
</defs>
</svg>
