<svg width="24" height="24" viewBox="0 0 24 24" fill="none" xmlns="http://www.w3.org/2000/svg">
<path d="M7.5 11H16.5H16.6C16.9 11 17.1 10.7 17 10.4L16 4.4C16 4.2 15.7 4 15.5 4H8.5C8.3 4 8 4.2 8 4.4L7 10.4V10.5C7 10.8 7.2 11 7.5 11ZM8.9 5H15.1L15.9 10H8.1L8.9 5ZM22 13.4C22 13.2 21.8 13 21.5 13H14.5C14.3 13 14 13.2 14 13.4L13 19.4V19.5C13 19.8 13.2 20 13.5 20H22.5H22.6C22.9 20 23.1 19.7 23 19.4L22 13.4ZM14.1 19L14.9 14H21.1L21.9 19H14.1ZM9.5 13H2.5C2.3 13 2 13.2 2 13.4L1 19.4V19.5C1 19.8 1.2 20 1.5 20H10.5H10.6C10.9 20 11.1 19.7 11 19.4L10 13.4C10 13.2 9.7 13 9.5 13ZM2.1 19L2.9 14H9.1L9.9 19H2.1Z" fill="white"/>
</svg>
