<svg width="24" height="24" viewBox="0 0 24 24" fill="none" xmlns="http://www.w3.org/2000/svg">
<path d="M18 13.2601V18.0001C18 18.7958 17.6839 19.5589 17.1213 20.1215C16.5587 20.6841 15.7956 21.0001 15 21.0001H9C8.20435 21.0001 7.44129 20.6841 6.87868 20.1215C6.31607 19.5589 6 18.7958 6 18.0001V13.0876L11.1825 16.0876C11.4742 16.2606 11.8071 16.3518 12.1462 16.3518C12.4854 16.3518 12.8183 16.2606 13.11 16.0876L18 13.2601Z" stroke="white" stroke-linecap="round" stroke-linejoin="round"/>
<path d="M11.1823 16.1101L3.49478 11.6101C3.20697 11.4414 2.96829 11.2004 2.80243 10.9109C2.63658 10.6215 2.54932 10.2937 2.54932 9.96008C2.54932 9.62648 2.63658 9.29868 2.80243 9.00924C2.96829 8.71979 3.20697 8.47876 3.49478 8.31008L11.1823 3.81008C11.474 3.63715 11.8069 3.5459 12.146 3.5459C12.4852 3.5459 12.8181 3.63715 13.1098 3.81008L20.7973 8.31008C21.087 8.47725 21.3276 8.71775 21.4948 9.00739C21.6621 9.29703 21.7502 9.62561 21.7502 9.96008C21.7502 10.2946 21.6621 10.6231 21.4948 10.9128C21.3276 11.2024 21.087 11.4429 20.7973 11.6101L13.1098 16.1101C12.8181 16.283 12.4852 16.3743 12.146 16.3743C11.8069 16.3743 11.474 16.283 11.1823 16.1101V16.1101Z" stroke="white" stroke-linecap="round" stroke-linejoin="round"/>
<path d="M21 11.49V17.25" stroke="white" stroke-linecap="round" stroke-linejoin="round"/>
<path d="M21 18.75C21.4142 18.75 21.75 18.4142 21.75 18C21.75 17.5858 21.4142 17.25 21 17.25C20.5858 17.25 20.25 17.5858 20.25 18C20.25 18.4142 20.5858 18.75 21 18.75Z" stroke="white" stroke-linecap="round" stroke-linejoin="round"/>
</svg>
