<svg xmlns="http://www.w3.org/2000/svg" viewBox="0 0 512 512" width="300" height="300" version="1.1" xmlns:xlink="http://www.w3.org/1999/xlink" xmlns:svgjs="http://svgjs.dev/svgjs"><g width="100%" height="100%" transform="matrix(1,0,0,1,0,0)"><g id="_37_Certificate" data-name="37 Certificate"><path d="M400.37,413.25H40.67A35.72,35.72,0,0,1,5,377.57V280.7a6,6,0,0,1,12,0v96.87a23.71,23.71,0,0,0,23.67,23.68h353.7V375.63a64.51,64.51,0,0,1,71.21-103.19V134a23.69,23.69,0,0,0-23.66-23.68H40.67A23.7,23.7,0,0,0,17,134V233.9a6,6,0,0,1-12,0V134A35.72,35.72,0,0,1,40.67,98.29H441.92A35.7,35.7,0,0,1,477.58,134V281.91a6,6,0,0,1-9,5.2,52.51,52.51,0,0,0-63.91,82,6,6,0,0,1,1.68,4.17v34A6,6,0,0,1,400.37,413.25Z" fill="#ffffff" fill-opacity="1" data-original-color="#000000ff" stroke="none" stroke-opacity="1"/><path d="M11,267.8a6,6,0,0,1-6-6v-9a6,6,0,0,1,12,0v9A6,6,0,0,1,11,267.8Z" fill="#ffffff" fill-opacity="1" data-original-color="#000000ff" stroke="none" stroke-opacity="1"/><path d="M397.15,375.64H78.27A35.71,35.71,0,0,1,42.6,340V171.56a35.72,35.72,0,0,1,35.67-35.68h326A35.73,35.73,0,0,1,440,171.56V274.77a6,6,0,0,1-5.14,5.94,52.5,52.5,0,0,0-33.05,85.13,6,6,0,0,1-4.65,9.8ZM78.27,147.88A23.71,23.71,0,0,0,54.6,171.56V340a23.7,23.7,0,0,0,23.67,23.67H385.91A64.5,64.5,0,0,1,428,269.8V171.56a23.71,23.71,0,0,0-23.68-23.68ZM434,274.77h0Z" fill="#ffffff" fill-opacity="1" data-original-color="#000000ff" stroke="none" stroke-opacity="1"/><path d="M341,219.43H141.6a27.56,27.56,0,1,1,0-55.12H341a27.56,27.56,0,0,1,0,55.12ZM141.6,176.31a15.56,15.56,0,1,0,0,31.12H341a15.56,15.56,0,0,0,0-31.12Z" fill="#ffffff" fill-opacity="1" data-original-color="#000000ff" stroke="none" stroke-opacity="1"/><path d="M198.21,352.67H117.37a18.56,18.56,0,0,1-18.53-18.54V299.75a6,6,0,0,1,2.14-4.6l48.77-40.92a12.5,12.5,0,0,1,16.08,0l48.77,40.93a6,6,0,0,1,2.15,4.59v34.39A18.56,18.56,0,0,1,198.21,352.67Zm-87.37-50.13v31.59a6.55,6.55,0,0,0,6.53,6.54h80.84a6.55,6.55,0,0,0,6.54-6.54V302.54l-46.63-39.12a.51.51,0,0,0-.66,0Z" fill="#ffffff" fill-opacity="1" data-original-color="#000000ff" stroke="none" stroke-opacity="1"/><path d="M218.15,309.07a15.47,15.47,0,0,1-9.93-3.61l-50.1-42a.5.5,0,0,0-.65,0l-50.11,42a15.46,15.46,0,0,1-21.76-1.91,15.44,15.44,0,0,1,1.9-21.76l60.34-50.63a15.5,15.5,0,0,1,19.91,0l60.34,50.63a15.45,15.45,0,0,1-9.94,27.28Zm-60.36-57.78a12.45,12.45,0,0,1,8,2.94l50.11,42a3.42,3.42,0,0,0,2.21.8,3.44,3.44,0,0,0,3.44-3.75,3.4,3.4,0,0,0-1.22-2.34L160,240.35a3.52,3.52,0,0,0-4.49,0L95.21,291a3.45,3.45,0,0,0,4.44,5.29l50.1-42A12.47,12.47,0,0,1,157.79,251.29Z" fill="#ffffff" fill-opacity="1" data-original-color="#000000ff" stroke="none" stroke-opacity="1"/><path d="M183,352.67H132.62a6,6,0,0,1-6-6v-43.1c0-6.45,5.88-11.51,13.38-11.51h35.59c7.5,0,13.37,5.06,13.37,11.51v43.1A6,6,0,0,1,183,352.67Zm-44.34-12H177V304.34a3.17,3.17,0,0,0-1.37-.28H140a3.26,3.26,0,0,0-1.38.28Z" fill="#ffffff" fill-opacity="1" data-original-color="#000000ff" stroke="none" stroke-opacity="1"/><path d="M411.6,446.33a17.25,17.25,0,0,1-17.23-17.25V373.27a6,6,0,0,1,10.32-4.16,52.06,52.06,0,0,0,37.8,16.06,6,6,0,0,1,6,6v36.09a6,6,0,0,1-3.49,5.45l-26.18,12A17.29,17.29,0,0,1,411.6,446.33Zm-5.23-60.18v42.93a5.24,5.24,0,0,0,7.43,4.76l22.69-10.43V396.9A63.69,63.69,0,0,1,406.37,386.15Z" fill="#ffffff" fill-opacity="1" data-original-color="#000000ff" stroke="none" stroke-opacity="1"/><path d="M473.38,446.33a17.24,17.24,0,0,1-7.21-1.58l-26.18-12a6,6,0,0,1-3.5-5.45V391.17a6,6,0,0,1,6-6,52.06,52.06,0,0,0,37.8-16.06,6,6,0,0,1,10.32,4.17v55.8a17.25,17.25,0,0,1-17.23,17.25Zm-24.89-22.92,22.69,10.43a5.23,5.23,0,0,0,7.43-4.76V386.15a63.69,63.69,0,0,1-30.12,10.75Z" fill="#ffffff" fill-opacity="1" data-original-color="#000000ff" stroke="none" stroke-opacity="1"/><path d="M442.49,397.17A64.51,64.51,0,1,1,507,332.67,64.58,64.58,0,0,1,442.49,397.17Zm0-117A52.51,52.51,0,1,0,495,332.67,52.57,52.57,0,0,0,442.49,280.16Z" fill="#ffffff" fill-opacity="1" data-original-color="#000000ff" stroke="none" stroke-opacity="1"/><path d="M442.49,375.3a42.64,42.64,0,1,1,42.64-42.63A42.67,42.67,0,0,1,442.49,375.3Zm0-73.27a30.64,30.64,0,1,0,30.64,30.64A30.67,30.67,0,0,0,442.49,302Z" fill="#ffffff" fill-opacity="1" data-original-color="#000000ff" stroke="none" stroke-opacity="1"/><path d="M394.6,261.76H266.27a6,6,0,0,1,0-12H394.6a6,6,0,0,1,0,12Z" fill="#ffffff" fill-opacity="1" data-original-color="#000000ff" stroke="none" stroke-opacity="1"/><path d="M394.6,304.06H266.27a6,6,0,0,1,0-12H394.6a6,6,0,0,1,0,12Z" fill="#ffffff" fill-opacity="1" data-original-color="#000000ff" stroke="none" stroke-opacity="1"/><path d="M384.12,342.6H266.27a6,6,0,0,1,0-12H384.12a6,6,0,0,1,0,12Z" fill="#ffffff" fill-opacity="1" data-original-color="#000000ff" stroke="none" stroke-opacity="1"/></g></g></svg>