<svg id="Layer_1" enable-background="new 0 0 66 66" viewBox="0 0 66 66" xmlns="http://www.w3.org/2000/svg" width="300" height="300" version="1.1" xmlns:xlink="http://www.w3.org/1999/xlink" xmlns:svgjs="http://svgjs.dev/svgjs"><g width="100%" height="100%" transform="matrix(1,0,0,1,0,0)"><g><path d="m56.3515739 2.0015578h-49.6532821c-2.5896249 0-4.696734 2.1071091-4.696734 4.696734v52.6034164c0 2.5896263 2.1071091 4.6967354 4.696734 4.6967354h39.1892891c2.5896225 0 4.6967316-2.1071091 4.6967316-4.6967354v-32.369852h8.7173958c2.5896263 0 4.6967354-2.1071091 4.6967354-4.6967335v-12.5876122c0-2.0438132-.7953262-3.964704-2.2382889-5.4076653s-3.3638535-2.2382874-5.4085809-2.2382874zm-7.6459541 57.3001504c0 1.5539589-1.26408 2.8180389-2.8180389 2.8180389h-39.1892891c-1.5539584 0-2.8180404-1.26408-2.8180404-2.8180389v-52.6034164c0-1.5539584 1.264082-2.8180404 2.8180404-2.8180404h44.6382332c-.0589943.0513706-.1112823.1099076-.1686745.1630554-.1073265.0993013-.213623.1992903-.3151016.304554-.0781479.081069-.1523933.1652341-.2269821.2496858-.0957489.108417-.1893158.2182674-.2788696.3320165-.070118.0890384-.1374283.1799116-.2036476.2721605-.0846252.117877-.1656342.2378755-.2436638.3606257-.0604324.0951734-.1193123.1909194-.1756706.2888446-.0735016.1277957-.1417274.258286-.2079468.3906112-.0500526.1000462-.0999908.1996341-.1456833.3020883-.0615196.1378288-.1159286.2788687-.1693649.4207683-.0387573.1029129-.079174.2045646-.1135178.3095417-.0494804.1509008-.0896683.3055286-.1298027.4604425-.0261421.1010213-.056015.2002077-.0780869.3028336-.037323.1733761-.0629539.3505926-.0882378.5280962-.0126686.0886946-.0309601.1753826-.040535.2649937-.0286636.2686062-.0451202.5408239-.0451202.8169413v16.3449993zm13.4141274-37.0665855c0 1.5539589-1.26408 2.8180408-2.8180389 2.8180408h-8.7173958v-15.405653c0-3.1803865 2.5868759-5.7672591 5.7672615-5.7672591 1.5429497 0 2.9914131.5990171 4.0802841 1.6878886 1.0888748 1.0888715 1.6878891 2.5373373 1.6878891 4.0793705z" fill="#ffffff" fill-opacity="1" data-original-color="#000000ff" stroke="none" stroke-opacity="1"/><path d="m42.7126999 36.3721085h-5.1104507c-.5192108 0-.9393463.4201355-.9393463.9393463s.4201355.9393463.9393463.9393463h5.1104507c.519207 0 .9393463-.4201355.9393463-.9393463s-.4201393-.9393463-.9393463-.9393463z" fill="#ffffff" fill-opacity="1" data-original-color="#000000ff" stroke="none" stroke-opacity="1"/><path d="m9.5557766 38.2508011h21.3774776c.5192089 0 .9393463-.4201355.9393463-.9393463s-.4201374-.9393463-.9393463-.9393463h-21.3774776c-.5192089 0-.9393463.4201355-.9393463.9393463s.4201374.9393463.9393463.9393463z" fill="#ffffff" fill-opacity="1" data-original-color="#000000ff" stroke="none" stroke-opacity="1"/><path d="m42.7126999 42.8805695h-13.5682411c-.5192089 0-.9393463.4201393-.9393463.9393463 0 .5192108.4201374.9393463.9393463.9393463h13.5682411c.519207 0 .9393463-.4201355.9393463-.9393463 0-.519207-.4201393-.9393463-.9393463-.9393463z" fill="#ffffff" fill-opacity="1" data-original-color="#000000ff" stroke="none" stroke-opacity="1"/><path d="m9.5557766 44.7592621h13.1297569c.5192089 0 .9393463-.4201355.9393463-.9393463 0-.519207-.4201374-.9393463-.9393463-.9393463h-13.1297569c-.5192089 0-.9393463.4201393-.9393463.9393463 0 .5192108.4201374.9393463.9393463.9393463z" fill="#ffffff" fill-opacity="1" data-original-color="#000000ff" stroke="none" stroke-opacity="1"/><path d="m42.7126999 49.3899498h-5.1104507c-.5192108 0-.9393463.4201355-.9393463.9393463s.4201355.9393463.9393463.9393463h5.1104507c.519207 0 .9393463-.4201355.9393463-.9393463s-.4201393-.9393463-.9393463-.9393463z" fill="#ffffff" fill-opacity="1" data-original-color="#000000ff" stroke="none" stroke-opacity="1"/><path d="m9.5557766 51.2686424h21.3774776c.5192089 0 .9393463-.4201355.9393463-.9393463s-.4201374-.9393463-.9393463-.9393463h-21.3774776c-.5192089 0-.9393463.4201355-.9393463.9393463s.4201374.9393463.9393463.9393463z" fill="#ffffff" fill-opacity="1" data-original-color="#000000ff" stroke="none" stroke-opacity="1"/><path d="m42.7126999 55.8993301h-19.3960438c-.5192089 0-.9393463.4201355-.9393463.9393463 0 .519207.4201374.9393463.9393463.9393463h19.3960438c.519207 0 .9393463-.4201393.9393463-.9393463 0-.5192108-.4201393-.9393463-.9393463-.9393463z" fill="#ffffff" fill-opacity="1" data-original-color="#000000ff" stroke="none" stroke-opacity="1"/><path d="m16.1477165 55.8993301h-6.5919399c-.5192089 0-.9393463.4201355-.9393463.9393463 0 .519207.4201374.9393463.9393463.9393463h6.5919399c.5192089 0 .9393463-.4201393.9393463-.9393463 0-.5192108-.4201374-.9393463-.9393463-.9393463z" fill="#ffffff" fill-opacity="1" data-original-color="#000000ff" stroke="none" stroke-opacity="1"/><path d="m15.7266617 31.022234h20.8151512c.5192108 0 .9393463-.4201374.9393463-.9393463 0-4.9416599-3.1813583-9.1444111-7.5991669-10.6972237 1.5883007-1.1602516 2.6263199-3.0310898 2.6263199-5.1441612 0-3.5142946-2.8593216-6.3736143-6.3736153-6.3736143s-6.3736153 2.8593197-6.3736153 6.3736143c0 2.1130142 1.0379028 3.9837379 2.6261463 5.1440468-4.4183807 1.5526981-7.5999136 5.7555637-7.5999136 10.6973381.0000001.5192089.4201375.9393463.9393474.9393463zm5.9131145-16.7807312c0-2.4786282 2.0162926-4.4949207 4.4949207-4.4949207s4.4949207 2.0162926 4.4949207 4.4949207-2.0162945 4.4949207-4.4949207 4.4949207-4.4949207-2.0162926-4.4949207-4.4949207zm4.4949208 6.3736133c4.9031334 0 8.9485626 3.7472973 9.4219055 8.5284252h-18.8447285c.4733429-4.7811279 4.5187721-8.5284252 9.422823-8.5284252z" fill="#ffffff" fill-opacity="1" data-original-color="#000000ff" stroke="none" stroke-opacity="1"/></g></g></svg>