<svg width="24" height="24" viewBox="0 0 24 24" fill="none" xmlns="http://www.w3.org/2000/svg">
<path d="M11.4216 5.34687L11.655 4.90472C11.5302 4.83879 11.3833 4.82873 11.2506 4.87702L11.4216 5.34687ZM8.60251 6.37293L8.4315 5.90308C8.28482 5.95647 8.17149 6.0753 8.1251 6.22434C8.07871 6.37337 8.10458 6.53553 8.19505 6.66273L8.60251 6.37293ZM15.3736 7.43354L15.1401 7.87569C15.2747 7.94671 15.4342 7.95264 15.5736 7.89181L15.3736 7.43354ZM16.5296 6.92906L16.3296 6.4708L16.5296 6.92906ZM21.0969 9.27459L20.9259 8.80474L21.0969 9.27459ZM7.70772 14.1478L7.36396 14.5109C7.50148 14.6411 7.70077 14.6825 7.87873 14.6177L7.70772 14.1478ZM6.89589 13.3792L7.23965 13.0161C7.10213 12.8859 6.90284 12.8446 6.72488 12.9093L6.89589 13.3792ZM6.89587 13.3792L6.5521 13.7423C6.68963 13.8725 6.88892 13.9138 7.06688 13.849L6.89587 13.3792ZM5.27212 11.8418L5.61589 11.4787L5.61589 11.4787L5.27212 11.8418ZM3.6484 10.3044L3.47739 9.83459C3.31455 9.89386 3.19401 10.0332 3.15882 10.2029C3.12362 10.3726 3.1788 10.5484 3.30463 10.6675L3.6484 10.3044ZM6.46747 9.27837L6.81124 8.9153C6.67372 8.78509 6.47443 8.74375 6.29646 8.80853L6.46747 9.27837ZM7.94358 10.676L7.59982 11.0391C7.74554 11.177 7.95964 11.2145 8.14357 11.1342L7.94358 10.676ZM10.782 9.4373L10.982 9.89556C11.12 9.83532 11.2236 9.71606 11.2638 9.57092C11.3041 9.42578 11.2768 9.27023 11.1895 9.1475L10.782 9.4373ZM11.4216 5.34687L11.2506 4.87702L8.4315 5.90308L8.60251 6.37293L8.77352 6.84278L11.5926 5.81672L11.4216 5.34687ZM15.3736 7.43354L15.6071 6.99139L11.655 4.90472L11.4216 5.34687L11.1881 5.78902L15.1401 7.87569L15.3736 7.43354ZM16.5296 6.92906L16.3296 6.4708L15.1736 6.97528L15.3736 7.43354L15.5736 7.89181L16.7296 7.38733L16.5296 6.92906ZM21.2472 8.95219L21.7171 8.78118C20.9237 6.60139 18.4557 5.54299 16.3296 6.4708L16.5296 6.92906L16.7296 7.38733C18.327 6.69023 20.1813 7.48544 20.7774 9.1232L21.2472 8.95219ZM21.0969 9.27459L21.2679 9.74443C21.6579 9.60247 21.859 9.17121 21.7171 8.78118L21.2472 8.95219L20.7774 9.1232C20.7305 8.99426 20.7969 8.85167 20.9259 8.80474L21.0969 9.27459ZM7.70772 14.1478L7.87873 14.6177L21.2679 9.74443L21.0969 9.27459L20.9259 8.80474L7.53671 13.678L7.70772 14.1478ZM6.89589 13.3792L6.55212 13.7423L7.36396 14.5109L7.70772 14.1478L8.05149 13.7848L7.23965 13.0161L6.89589 13.3792ZM6.89589 13.3792L6.72488 12.9093L6.72486 12.9094L6.89587 13.3792L7.06688 13.849L7.0669 13.849L6.89589 13.3792ZM6.89587 13.3792L7.23964 13.0161L5.61589 11.4787L5.27212 11.8418L4.92835 12.2049L6.5521 13.7423L6.89587 13.3792ZM5.27212 11.8418L5.61589 11.4787L3.99216 9.94136L3.6484 10.3044L3.30463 10.6675L4.92836 12.2049L5.27212 11.8418ZM3.6484 10.3044L3.81941 10.7743L6.63848 9.74822L6.46747 9.27837L6.29646 8.80853L3.47739 9.83459L3.6484 10.3044ZM6.46747 9.27837L6.12371 9.64145L7.59982 11.0391L7.94358 10.676L8.28735 10.3129L6.81124 8.9153L6.46747 9.27837ZM10.782 9.4373L10.582 8.97903L7.7436 10.2177L7.94358 10.676L8.14357 11.1342L10.982 9.89556L10.782 9.4373ZM8.60251 6.37293L8.19505 6.66273L10.3746 9.72709L10.782 9.4373L11.1895 9.1475L9.00996 6.08313L8.60251 6.37293Z" fill="white"/>
<path d="M4 19L20 19" stroke="white" stroke-linecap="round" stroke-linejoin="round"/>
</svg>
