<svg id="Layer_1" enable-background="new 0 0 66 66" viewBox="0 0 66 66" xmlns="http://www.w3.org/2000/svg" width="300" height="300" version="1.1" xmlns:xlink="http://www.w3.org/1999/xlink" xmlns:svgjs="http://svgjs.dev/svgjs"><g width="100%" height="100%" transform="matrix(1,0,0,1,0,0)"><g><path d="m60.9419708 57.1101418h-.2541122v-1.9420586c0-1.6861115-1.3714561-3.0575714-3.0575714-3.0575714h-3.4255486l.0207558-.6054573c.1247597-3.320858.7880135-5.8298454 2.2888222-8.6608276.4729004-.8935127.7196693-1.8576622.7329712-2.8649254.0353203-1.69804-.6105042-3.3226929-1.8195877-4.5758095-1.0347862-1.0732574-2.3578529-1.7388611-3.7900887-1.9245148v-17.3502064c0-.0205822-.010376-.0377827-.0116959-.0580235-.0053902-.0852566-.0219612-.1672459-.0500526-.2479172-.0105515-.0302725-.018177-.0601444-.0316505-.0889263-.0448914-.0964384-.1017113-.1877155-.1794014-.266036-.0012054-.0012035-.0019493-.0028086-.003212-.0040703l-13.1874962-13.1874992c-.0013771-.0013759-.003212-.0021787-.0045891-.0035548-.0788345-.0780904-.1706276-.1352537-.2675819-.1803765-.0264893-.012327-.0539551-.0193791-.0817032-.0291836-.084568-.0301583-.1708031-.0475881-.2603035-.0525188-.0177155-.0009749-.0326805-.0102057-.0506248-.0102057h-30.8119412c-2.5897169 0-4.6969004 2.1071835-4.6969004 4.6969004v52.6052856c0 2.5897141 2.1071835 4.6968994 4.6969004 4.6968994h31.9013081 24.4614944c.5187683 0 .9393806-.4201546.9393806-.9393806v-2.8924484c0-1.6861136-1.3714599-3.0575735-3.0575714-3.0575735zm-2.1328697-1.9420586v1.9420586h-15.9593697v-1.9420586c0-.6504097.5288582-1.1788101 1.1788101-1.1788101h4.40839 4.795517 4.3978386c.649952 0 1.178814.5284004 1.178814 1.1788101zm-3.4405708-15.2245598v.008255c-.0087166.7082062-.1820984 1.3852196-.514183 2.0126953-1.6439171 3.0997696-2.3700104 5.843605-2.5066948 9.4726944l-.022934.6733437h-2.9837265l-.0619202-1.6338234c-.1247635-3.3575478-1.1370735-5.7160912-2.5507278-8.6755066-.2862206-.6100464-.4375839-1.2861404-.4375839-1.9558182 0-2.4970627 2.0301247-4.5354424 4.5226021-4.5436974h.0830193c1.1921158.0174294 2.3209305.5164757 3.1791229 1.4063148.8600272.8907624 1.319168 2.0402185 1.2930259 3.2355424zm-16.9198494-34.7359624 9.9818306 9.9818306h-7.1636925c-1.5540123 0-2.8181381-1.2641268-2.8181381-2.81814zm-34.5694621 54.0950818v-52.6052837c0-1.5540137 1.2641265-2.8181403 2.8181403-2.8181403h29.8725605v8.4920321c0 2.5897169 2.1071815 4.6969004 4.6968994 4.6969004h8.4920311v16.4523947c-3.0282707.5142403-5.3468513 3.1538391-5.3468513 6.3248177 0 .9439697.2128296 1.8961906.6183052 2.7594299 1.3599892 2.847496 2.259922 4.9381676 2.3709259 7.9425316l.0596275 1.5631866h-3.4323158c-1.6861153 0-3.0575714 1.37146-3.0575714 3.0575714v1.9420586h-.2541084c-1.6861153 0-3.0575752 1.37146-3.0575752 3.0575714v1.9530678h-30.9619275c-1.5540137-.0000001-2.8181403-1.2641259-2.8181403-2.8181382zm58.2415621 2.8181381h-22.5827331v-1.9530678c0-.6504097.528862-1.1788101 1.1788139-1.1788101h1.1934891 17.8381271 1.1934929c.6499519 0 1.1788101.5284004 1.1788101 1.1788101z" fill="#ffffff" fill-opacity="1" data-original-color="#000000ff" stroke="none" stroke-opacity="1"/><path d="m10.2860842 16.1095066h20.5250854c1.5540142 0 2.81814-1.2641268 2.81814-2.81814v-3.0905972c0-1.5540133-1.2641258-2.81814-2.81814-2.81814h-20.5250854c-1.5540133 0-2.81814 1.2641268-2.81814 2.81814v3.0905972c-.0000001 1.5540132 1.2641267 2.81814 2.81814 2.81814zm-.9393797-5.9087372c0-.5183105.4215279-.9393797.9393797-.9393797h20.5250854c.5178528 0 .9393806.4210691.9393806.9393797v3.0905972c0 .5183105-.4215279.9393797-.9393806.9393797h-20.5250854c-.5178518 0-.9393797-.4210691-.9393797-.9393797z" fill="#ffffff" fill-opacity="1" data-original-color="#000000ff" stroke="none" stroke-opacity="1"/><path d="m36.6075325 23.3520908h8.1723289c.5187683 0 .9393806-.4201527.9393806-.9393806s-.4206123-.9393806-.9393806-.9393806h-8.1723289c-.5187683 0-.9393806.4201527-.9393806.9393806s.4206123.9393806.9393806.9393806z" fill="#ffffff" fill-opacity="1" data-original-color="#000000ff" stroke="none" stroke-opacity="1"/><path d="m8.4073238 23.3520908h18.8435612c.5187683 0 .9393787-.4201527.9393787-.9393806s-.4206104-.9393806-.9393787-.9393806h-18.8435612c-.5187688 0-.9393797.4201527-.9393797.9393806s.4206109.9393806.9393797.9393806z" fill="#ffffff" fill-opacity="1" data-original-color="#000000ff" stroke="none" stroke-opacity="1"/><path d="m44.7798615 27.2976704h-21.2488862c-.5187683 0-.9393787.4201508-.9393787.9393787s.4206104.9393806.9393787.9393806h21.2488861c.5187683 0 .9393806-.4201527.9393806-.9393806s-.4206122-.9393787-.9393805-.9393787z" fill="#ffffff" fill-opacity="1" data-original-color="#000000ff" stroke="none" stroke-opacity="1"/><path d="m8.4073238 29.1764297h7.5618258c.5187693 0 .9393797-.4201527.9393797-.9393806s-.4206104-.9393787-.9393797-.9393787h-7.5618258c-.5187688 0-.9393797.4201508-.9393797.9393787s.4206109.9393806.9393797.9393806z" fill="#ffffff" fill-opacity="1" data-original-color="#000000ff" stroke="none" stroke-opacity="1"/><path d="m37.5093002 33.1220093h-7.1017685c-.5187702 0-.9393806.4201508-.9393806.9393806 0 .5192261.4206104.9393806.9393806.9393806h7.1017685c.5187683 0 .9393806-.4201546.9393806-.9393806.0000001-.5192299-.4206123-.9393806-.9393806-.9393806z" fill="#ffffff" fill-opacity="1" data-original-color="#000000ff" stroke="none" stroke-opacity="1"/><path d="m8.4073238 35.0007706h15.0860405c.5187683 0 .9393787-.4201546.9393787-.9393806 0-.5192299-.4206104-.9393806-.9393787-.9393806h-15.0860405c-.5187688 0-.9393797.4201508-.9393797.9393806 0 .519226.4206109.9393806.9393797.9393806z" fill="#ffffff" fill-opacity="1" data-original-color="#000000ff" stroke="none" stroke-opacity="1"/><path d="m37.5093002 38.9463501h-15.5561886c-.5187702 0-.9393806.4201508-.9393806.9393806 0 .5192261.4206104.9393768.9393806.9393768h15.5561886c.5187683 0 .9393806-.4201508.9393806-.9393768.0000001-.5192298-.4206123-.9393806-.9393806-.9393806z" fill="#ffffff" fill-opacity="1" data-original-color="#000000ff" stroke="none" stroke-opacity="1"/><path d="m15.2270031 39.8857307c0-.5192299-.4206114-.9393806-.9393797-.9393806h-5.8802996c-.5187688 0-.9393797.4201508-.9393797.9393806 0 .5192261.4206109.9393768.9393797.9393768h5.8802996c.5187683.0000001.9393797-.4201507.9393797-.9393768z" fill="#ffffff" fill-opacity="1" data-original-color="#000000ff" stroke="none" stroke-opacity="1"/><path d="m20.7926464 44.9202194c-3.8786125 0-7.0338831 3.1557312-7.0338831 7.0343399s3.1552706 7.0343437 7.0338831 7.0343437 7.0343418-3.1557312 7.0343418-7.0343437-3.1557293-7.0343399-7.0343418-7.0343399zm0 12.1899224c-2.8424511 0-5.1551237-2.3126717-5.1551237-5.1555824 0-2.842907 2.3126726-5.1555786 5.1551237-5.1555786 2.8429089 0 5.1555824 2.3126717 5.1555824 5.1555786 0 2.8429107-2.3126735 5.1555824-5.1555824 5.1555824z" fill="#ffffff" fill-opacity="1" data-original-color="#000000ff" stroke="none" stroke-opacity="1"/><path d="m20.7926464 48.1970406c-.5187683 0-.9393806.4201508-.9393806.9393806 0 .5192261.4206123.9393806.9393806.9393806 1.0361614 0 1.8787594.8430557 1.8787594 1.8787575 0 .5192299.4206123.9393806.9393806.9393806s.9393806-.4201508.9393806-.9393806c.0000001-2.0723228-1.6856555-3.7575187-3.7575206-3.7575187z" fill="#ffffff" fill-opacity="1" data-original-color="#000000ff" stroke="none" stroke-opacity="1"/><path d="m20.7926464 53.8333206c-1.0361614 0-1.8787594-.8430557-1.8787594-1.8787613 0-.5192261-.4206123-.9393768-.9393806-.9393768s-.9393806.4201508-.9393806.9393768c0 2.0723267 1.6856556 3.7575226 3.7575207 3.7575226.5187683 0 .9393806-.4201546.9393806-.9393806s-.4206124-.9393807-.9393807-.9393807z" fill="#ffffff" fill-opacity="1" data-original-color="#000000ff" stroke="none" stroke-opacity="1"/></g></g></svg>