<svg xmlns="http://www.w3.org/2000/svg" width="75" height="75" viewBox="0 0 75 75">
    <defs>
        <linearGradient id="nf0d57keaa" x1="27.14%" x2="70.395%" y1="1.239%" y2="104.661%">
            <stop offset="0%" stop-color="#8DD3D3"/>
            <stop offset="100%" stop-color="#00B3AE"/>
        </linearGradient>
        <linearGradient id="u7nopxoy2b" x1="75.698%" x2="28.109%" y1="1.751%" y2="106.612%">
            <stop offset="0%" stop-color="#86D3E6"/>
            <stop offset="100%" stop-color="#00ADE5"/>
        </linearGradient>
        <linearGradient id="6kwkritybc" x1="100.003%" x2="-.002%" y1="50.003%" y2="50.003%">
            <stop offset="0%" stop-color="#8DD3D3"/>
            <stop offset="100%" stop-color="#00B3AE"/>
        </linearGradient>
        <linearGradient id="ojo1clen4d" x1=".012%" x2="100.025%" y1="49.967%" y2="49.967%">
            <stop offset="0%" stop-color="#86D3E6"/>
            <stop offset="100%" stop-color="#00ADE5"/>
        </linearGradient>
        <linearGradient id="7sr64ouose" x1="35.092%" x2="67.331%" y1="99.035%" y2="4.239%">
            <stop offset="0%" stop-color="#8DD3D3"/>
            <stop offset="100%" stop-color="#00B3AE"/>
        </linearGradient>
        <linearGradient id="hpv45ungpf" x1="64.167%" x2="32.403%" y1="98.444%" y2="5.803%">
            <stop offset="0%" stop-color="#86D3E6"/>
            <stop offset="100%" stop-color="#00ADE5"/>
        </linearGradient>
    </defs>
    <g fill="none" fill-rule="evenodd">
        <path fill="url(#nf0d57keaa)" fill-rule="nonzero" d="M45.069 0c-2.31.031-4.153 1.936-4.122 4.246.013.712.206 1.418.562 2.036l3.628 6.283v-.007l17.604 30.487h7.257c1.424 0 2.748.719 3.516 1.911L48.772 2.111c.012.018.019.043.031.062-.012-.025-.025-.05-.044-.081C48.022.818 46.674.019 45.2 0h-.13z"/>
        <path fill="url(#u7nopxoy2b)" fill-rule="nonzero" d="M21.432 13.276c-1.599.007-3.054.912-3.753 2.348L.731 44.956c.768-1.192 2.092-1.91 3.515-1.91h7.25l9.949-17.211v-.007l3.572-6.188c1.205-1.973.587-4.546-1.38-5.752-.662-.405-1.424-.618-2.205-.612"/>
        <path fill="url(#6kwkritybc)" fill-rule="nonzero" d="M62.748 43.045H41.053l1.106 1.905c1.261 1.936.712 4.528-1.224 5.789-.681.443-1.474.68-2.286.674h31.349c2.31 0 4.184-1.873 4.184-4.184 0-2.31-1.874-4.184-4.184-4.184h-7.25z"/>
        <path fill="url(#ojo1clen4d)" fill-rule="nonzero" d="M11.497 43.045h-7.25C1.935 43.04.056 44.906.05 47.217c-.006 2.31 1.86 4.19 4.171 4.196h16.05c-2.311 0-4.184-1.867-4.19-4.177 0-.806.23-1.599.674-2.28l1.093-1.91h-6.351z"/>
        <path fill="url(#7sr64ouose)" fill-rule="nonzero" d="M29.457 22.975l-4.834 8.368-6.757 11.702h-.012l-1.093 1.918c-1.205 1.973-.587 4.546 1.38 5.751 1.973 1.205 4.546.587 5.752-1.38.018-.038.043-.069.062-.106l.006-.019 5.49-9.498 4.833-8.375 10.853-18.784-3.522-6.107c-.843-1.312-.88-2.985-.112-4.334L29.457 22.975z"/>
        <path fill="url(#hpv45ungpf)" fill-rule="nonzero" d="M25.629 17.473c0 .8-.231 1.586-.669 2.26l-3.522 6.102 3.185 5.508 4.834 8.368 5.495 9.517c.73 1.349 2.142 2.192 3.678 2.192 2.31 0 4.203-1.874 4.203-4.184 0-.806-.237-1.599-.674-2.273l-1.106-1.918-6.763-11.709-4.833-8.368-4.378-7.575c.362.631.55 1.35.55 2.08"/>
        <path fill="#073E61" d="M19.915 56.672h-5.583v3.29h5.545c1.187 0 2.148.962 2.148 2.149v2.123h-6.713c-2.966.031-5.352 2.467-5.32 5.433.03 2.923 2.391 5.29 5.32 5.32h9.58c.218 0 .393-.174.393-.393V62.048c.006-2.966-2.404-5.376-5.37-5.376zm2.11 14.675c0 .218-.174.393-.393.393h-6.251c-1.187 0-2.148-.961-2.148-2.148 0-1.187.961-2.148 2.148-2.148h6.644v3.903zM12.402 59.963v-3.291H5.44c-2.972 0-5.377 2.41-5.377 5.376v12.54c0 .218.175.393.394.393h2.872V62.104c0-1.186.962-2.148 2.149-2.148l6.925.007zM74.182 56.678H58.813v2.872c0 .219.175.394.394.394h10.51L58.826 71.715l-.006 3.266h14.975c.218 0 .393-.175.393-.393v-2.873H63.303l10.879-11.771v-3.266zM51.513 67.425c2.967 0 5.377-2.404 5.377-5.377 0-2.972-2.404-5.376-5.377-5.376h-4.596c-2.966 0-5.377 2.404-5.377 5.376v7.556c0 2.967 2.405 5.377 5.377 5.377h9.973v-3.29h-9.935c-1.187 0-2.149-.962-2.149-2.149v-2.123l6.707.006zm-6.707-3.21v-2.148c0-1.186.962-2.148 2.149-2.148h4.496c1.186 0 2.148.962 2.148 2.148 0 1.187-.962 2.142-2.148 2.148h-6.645zM36.557 56.672l-6.076 6.563v-6.17c0-.219-.175-.393-.394-.393H27.21v17.916c0 .218.174.393.393.393h2.873v-6.557l6.057 6.557h4.478l-8.468-9.148 8.474-9.161h-4.459z"/>
    </g>
</svg>
